<svg width="159" height="39" viewBox="0 0 159 39" fill="none" xmlns="http://www.w3.org/2000/svg">
<path d="M36.8779 2.91992C40.3447 4.72656 41.1829 7.36328 39.3926 10.8301C36.8372 14.3945 33.6878 17.3812 29.9443 19.79C29.5863 20.0505 29.2201 20.319 28.8457 20.5957C27.2507 21.8001 25.5173 22.9557 23.6455 24.0625C21.79 25.153 19.9102 25.7959 18.0059 25.9912C17.7617 26.0238 17.4932 25.9912 17.2002 25.8936C16.9072 25.7959 16.7282 25.6087 16.6631 25.332C16.5817 24.4857 16.7445 23.7777 17.1514 23.208C17.5745 22.6221 18.0954 22.0768 18.7139 21.5723C18.8115 21.4746 18.9092 21.3851 19.0068 21.3037C20.5856 19.8551 22.2295 18.488 23.9385 17.2021C25.8102 15.7699 27.7552 14.4434 29.7734 13.2227C29.9688 13.0924 30.1641 12.9622 30.3594 12.832C30.8314 12.4902 31.3278 12.2054 31.8486 11.9775C32.3857 11.7334 32.9229 11.6846 33.46 11.8311C33.6553 11.8962 33.8343 12.002 33.9971 12.1484C34.1598 12.2949 34.2331 12.4821 34.2168 12.71C34.168 13.1657 33.9157 13.4749 33.46 13.6377C33.1344 13.7679 32.7845 13.7598 32.4102 13.6133C32.0846 13.7923 31.6777 14.0527 31.1895 14.3945C30.7012 14.7363 30.2617 15.0537 29.8711 15.3467C29.5781 15.5583 29.3747 15.6966 29.2607 15.7617C28.0563 16.5592 26.8844 17.3893 25.7451 18.252C24.5895 19.1146 23.4583 20.0098 22.3516 20.9375C22.1562 21.1165 21.9121 21.3118 21.6191 21.5234C21.1471 21.8652 20.667 22.2559 20.1787 22.6953C19.6904 23.1185 19.3079 23.5579 19.0312 24.0137C21.0983 23.2975 23.0433 22.264 24.8662 20.9131C25.2243 20.6689 25.5824 20.4329 25.9404 20.2051C28.0726 18.8379 30.1071 17.3405 32.0439 15.7129C32.1416 15.6315 32.2311 15.5501 32.3125 15.4688C33.3379 14.6387 34.3633 13.7191 35.3887 12.71C36.4141 11.6846 37.2116 10.5778 37.7812 9.38965C38.4486 7.66439 38.2451 6.32975 37.1709 5.38574C36.0967 4.44173 34.7539 3.88021 33.1426 3.70117C28.097 3.48958 23.2223 4.38477 18.5186 6.38672C14.5472 7.67253 10.9339 9.61751 7.67871 12.2217C6.7998 12.9378 5.86393 13.8656 4.87109 15.0049C3.87826 16.1442 3.34115 17.2998 3.25977 18.4717C3.34115 19.6436 3.91081 20.6201 4.96875 21.4014C6.02669 22.1826 7.08464 22.8092 8.14258 23.2812C8.27279 23.3626 8.39486 23.4277 8.50879 23.4766C10.641 24.5345 12.8301 25.4704 15.0762 26.2842C16.6387 26.8864 18.1849 27.5212 19.7148 28.1885C19.7637 28.2048 19.8044 28.221 19.8369 28.2373C21.1553 28.7907 22.5876 29.4987 24.1338 30.3613C27.0146 28.7826 29.985 27.5456 33.0449 26.6504C33.4355 26.5527 33.7936 26.6016 34.1191 26.7969C34.4447 26.9922 34.6237 27.2363 34.6562 27.5293C34.7051 27.806 34.5098 28.0257 34.0703 28.1885C31.2383 29.0348 28.5283 30.1742 25.9404 31.6064C26.9658 32.3714 27.7308 33.2503 28.2354 34.2432C28.6911 35.3662 28.5609 36.2126 27.8447 36.7822C27.1286 37.3682 26.2008 37.7344 25.0615 37.8809C23.9385 38.0273 22.9863 38.0355 22.2051 37.9053C20.5775 37.5472 19.609 36.8555 19.2998 35.8301C18.9906 34.821 19.487 33.7549 20.7891 32.6318C21.2611 32.2412 21.7493 31.875 22.2539 31.5332C21.2122 30.931 20.4798 30.5322 20.0566 30.3369C18.0872 29.3929 16.0934 28.5465 14.0752 27.7979C13.8962 27.7165 13.7171 27.6432 13.5381 27.5781C13.1637 27.4316 12.7894 27.2933 12.415 27.1631C8.86686 26.04 5.70117 24.3311 2.91797 22.0361C1.43685 20.555 0.907878 19.0576 1.33105 17.5439C1.73796 16.014 2.59245 14.5492 3.89453 13.1494C6.61263 10.2197 9.8597 7.93294 13.6357 6.28906C17.4281 4.64518 21.2448 3.41634 25.0859 2.60254C29.0898 1.46322 33.0205 1.56901 36.8779 2.91992ZM24.8174 36.1963C25.6312 35.7243 25.8997 35.179 25.623 34.5605C25.3464 33.9421 24.8092 33.3317 24.0117 32.7295C23.4909 33.0387 23.0026 33.3724 22.5469 33.7305C22.0423 34.1211 21.7331 34.5768 21.6191 35.0977C21.5052 35.6348 21.8063 36.0091 22.5225 36.2207C22.6689 36.2533 22.8887 36.2777 23.1816 36.2939C23.4909 36.3265 23.792 36.3346 24.085 36.3184C24.3942 36.3184 24.6383 36.2777 24.8174 36.1963ZM36.7432 25.2832C36.5153 25.332 36.2793 25.3239 36.0352 25.2588C35.8073 25.1937 35.6283 25.0635 35.498 24.8682C35.3516 24.5915 35.3271 24.3066 35.4248 24.0137C35.6364 23.5091 36.0107 23.2487 36.5479 23.2324C36.7594 23.0859 36.9954 23.0208 37.2559 23.0371C37.5326 23.0534 37.7686 23.1429 37.9639 23.3057C38.3057 23.6149 38.3464 23.973 38.0859 24.3799C37.9395 24.5915 37.7441 24.7868 37.5 24.9658C37.2559 25.1286 37.0036 25.2344 36.7432 25.2832ZM39.917 28.6279C40.2751 28.5465 40.5518 28.6035 40.7471 28.7988C40.9587 28.9941 41.04 29.222 40.9912 29.4824C40.9424 29.7266 40.7308 29.9137 40.3564 30.0439C39.2008 30.3206 38.029 30.4508 36.8408 30.4346C36.7106 30.4346 36.5723 30.4346 36.4258 30.4346C36.0677 30.4508 35.7015 30.4427 35.3271 30.4102C34.9528 30.3776 34.6029 30.2881 34.2773 30.1416C33.7402 29.8161 33.4717 29.4092 33.4717 28.9209C33.4554 28.4326 33.5856 27.9362 33.8623 27.4316C34.139 26.9271 34.4401 26.5039 34.7656 26.1621C34.9772 25.9505 35.2458 25.861 35.5713 25.8936C35.9131 25.9261 36.1735 26.0482 36.3525 26.2598C36.5479 26.4551 36.5316 26.6911 36.3037 26.9678C36.1247 27.1794 35.9456 27.4072 35.7666 27.6514C35.5876 27.8955 35.4574 28.1559 35.376 28.4326C35.3109 28.7093 35.3434 28.8802 35.4736 28.9453C35.6038 28.9941 35.7829 29.0104 36.0107 28.9941C36.0921 28.9779 36.1816 28.9697 36.2793 28.9697C37.5163 29.0186 38.7288 28.9046 39.917 28.6279ZM47.4482 23.7451C47.7249 23.6149 48.0098 23.6068 48.3027 23.7207C48.612 23.8184 48.8154 23.973 48.9131 24.1846C49.027 24.3962 48.9375 24.5996 48.6445 24.7949C47.1634 25.7227 45.9264 26.9189 44.9336 28.3838C44.1361 29.5394 43.2083 30.5566 42.1504 31.4355C41.9876 31.5495 41.7842 31.6064 41.54 31.6064C41.3122 31.5902 41.1006 31.5251 40.9053 31.4111C40.7262 31.2809 40.6449 31.1019 40.6611 30.874C40.8076 29.0837 41.0355 27.3014 41.3447 25.5273C41.4261 25.2344 41.6133 25.0472 41.9062 24.9658C42.2155 24.8682 42.5003 24.8763 42.7607 24.9902C43.0374 25.1042 43.1595 25.3158 43.127 25.625C42.9316 26.6504 42.777 27.6839 42.6631 28.7256C43.0212 28.2861 43.3792 27.8385 43.7373 27.3828C44.7139 25.9017 45.9508 24.6891 47.4482 23.7451ZM66.1855 27.627C66.5273 27.627 66.7959 27.7327 66.9912 27.9443C67.1865 28.1396 67.2598 28.3512 67.2109 28.5791C67.1784 28.807 66.9749 28.9372 66.6006 28.9697C65.8193 29.0186 65.0299 29.0755 64.2324 29.1406C61.4004 29.4336 58.6009 29.458 55.834 29.2139C54.8737 29.1162 54.1169 28.8314 53.5635 28.3594C52.945 28.7826 52.2695 29.1732 51.5371 29.5312C50.821 29.8893 50.1618 30.0765 49.5596 30.0928C48.9574 30.109 48.5342 29.8242 48.29 29.2383C48.1273 28.6361 48.29 28.0827 48.7783 27.5781C49.2503 27.0573 49.7223 26.6504 50.1943 26.3574C51.5778 25.4948 53.0996 25.1042 54.7598 25.1855C55.0527 25.2018 55.2643 25.2913 55.3945 25.4541C55.5247 25.6169 55.5654 25.7959 55.5166 25.9912C55.484 26.1865 55.3701 26.3411 55.1748 26.4551C55.3376 26.6504 55.3294 26.8864 55.1504 27.1631C55.0365 27.3584 55.1992 27.513 55.6387 27.627C56.0781 27.7246 56.6315 27.7979 57.2988 27.8467C57.9661 27.8792 58.5765 27.8955 59.1299 27.8955C59.6833 27.8955 60.0088 27.8955 60.1064 27.8955C62.141 27.8467 64.1673 27.7572 66.1855 27.627ZM51.3906 27.4072C51.2767 27.4723 51.1465 27.5618 51 27.6758C50.8535 27.7734 50.7314 27.8711 50.6338 27.9688C50.5524 28.0501 50.5361 28.1071 50.585 28.1396C50.6338 28.1722 50.7965 28.1478 51.0732 28.0664C51.8708 27.7572 52.6276 27.2852 53.3438 26.6504C52.6602 26.748 52.0091 27.0003 51.3906 27.4072ZM89.2686 28.7988C89.6429 28.8314 89.8952 28.9616 90.0254 29.1895C90.1719 29.4173 90.18 29.6452 90.0498 29.873C89.9359 30.1009 89.6917 30.223 89.3174 30.2393C83.6533 30.1742 77.9811 30.1172 72.3008 30.0684C72.1868 30.0521 72.0892 30.0358 72.0078 30.0195C71.9915 30.0195 71.9753 30.0195 71.959 30.0195C71.9427 30.0195 71.9264 30.0195 71.9102 30.0195C70.9987 30.0521 70.1686 29.7754 69.4199 29.1895C69.3548 29.1243 69.2897 29.0511 69.2246 28.9697C68.5247 29.3766 67.8249 29.7754 67.125 30.166C66.9134 30.2637 66.653 30.2718 66.3438 30.1904C66.0345 30.109 65.8311 29.9382 65.7334 29.6777C65.5869 28.8639 65.709 28.0745 66.0996 27.3096C66.474 26.5283 66.9215 25.7878 67.4424 25.0879C67.7354 24.6973 67.9876 24.3148 68.1992 23.9404C69.6803 21.4827 71.2021 19.0495 72.7646 16.6406C72.9437 16.4128 73.196 16.3151 73.5215 16.3477C73.847 16.3639 74.1156 16.4779 74.3271 16.6895C74.5387 16.901 74.5632 17.1533 74.4004 17.4463C73.2122 19.2855 72.0404 21.1328 70.8848 22.9883C70.3151 23.9323 69.7536 24.8682 69.2002 25.7959C69.1025 25.9749 68.9642 26.1865 68.7852 26.4307C68.4759 26.8864 68.1748 27.3828 67.8818 27.9199C68.0771 27.7897 68.2725 27.6676 68.4678 27.5537C68.5817 27.4886 68.6956 27.4235 68.8096 27.3584C68.8258 27.2119 68.8584 27.0817 68.9072 26.9678C69.1351 26.4307 69.5583 25.9993 70.1768 25.6738C70.7952 25.3483 71.43 25.2507 72.0811 25.3809C72.3252 25.332 72.5612 25.3646 72.7891 25.4785C73.0332 25.5762 73.2122 25.7145 73.3262 25.8936C73.4401 26.0563 73.432 26.2272 73.3018 26.4062C73.3343 26.6504 73.2367 26.8376 73.0088 26.9678C72.7972 27.098 72.5531 27.1468 72.2764 27.1143C71.7393 27.4561 71.2021 27.7897 70.665 28.1152C70.7627 28.3105 70.9255 28.4408 71.1533 28.5059C71.3812 28.5547 71.6172 28.5791 71.8613 28.5791C71.959 28.5954 72.0485 28.6117 72.1299 28.6279C72.1462 28.6279 72.1624 28.6279 72.1787 28.6279C72.195 28.6279 72.2194 28.6279 72.252 28.6279C77.916 28.693 83.5882 28.75 89.2686 28.7988ZM106.395 27.627C106.736 27.627 107.005 27.7327 107.2 27.9443C107.396 28.1396 107.469 28.3512 107.42 28.5791C107.387 28.807 107.184 28.9372 106.81 28.9697C106.028 29.0186 105.239 29.0755 104.441 29.1406C101.609 29.4336 98.8099 29.458 96.043 29.2139C95.0827 29.1162 94.3258 28.8314 93.7725 28.3594C93.154 28.7826 92.4785 29.1732 91.7461 29.5312C91.0299 29.8893 90.3708 30.0765 89.7686 30.0928C89.1663 30.109 88.7432 29.8242 88.499 29.2383C88.3363 28.6361 88.499 28.0827 88.9873 27.5781C89.4593 27.0573 89.9313 26.6504 90.4033 26.3574C91.7868 25.4948 93.3086 25.1042 94.9688 25.1855C95.2617 25.2018 95.4733 25.2913 95.6035 25.4541C95.7337 25.6169 95.7744 25.7959 95.7256 25.9912C95.693 26.1865 95.5791 26.3411 95.3838 26.4551C95.5465 26.6504 95.5384 26.8864 95.3594 27.1631C95.2454 27.3584 95.4082 27.513 95.8477 27.627C96.2871 27.7246 96.8405 27.7979 97.5078 27.8467C98.1751 27.8792 98.7855 27.8955 99.3389 27.8955C99.8923 27.8955 100.218 27.8955 100.315 27.8955C102.35 27.8467 104.376 27.7572 106.395 27.627ZM91.5996 27.4072C91.4857 27.4723 91.3555 27.5618 91.209 27.6758C91.0625 27.7734 90.9404 27.8711 90.8428 27.9688C90.7614 28.0501 90.7451 28.1071 90.7939 28.1396C90.8428 28.1722 91.0055 28.1478 91.2822 28.0664C92.0798 27.7572 92.8366 27.2852 93.5527 26.6504C92.8691 26.748 92.2181 27.0003 91.5996 27.4072ZM130.723 28.4082C131.097 28.4408 131.325 28.571 131.406 28.7988C131.488 29.0104 131.447 29.2301 131.284 29.458C131.121 29.6696 130.853 29.7754 130.479 29.7754C128.07 29.7591 125.832 29.7754 123.765 29.8242C122.056 29.8568 120.273 29.8649 118.418 29.8486C118.239 29.8486 118.044 29.8568 117.832 29.873C117.311 29.8893 116.782 29.8812 116.245 29.8486C115.724 29.7998 115.285 29.637 114.927 29.3604C114.699 29.2139 114.536 29.0104 114.438 28.75C114.438 28.7663 114.447 28.7174 114.463 28.6035C114.463 28.5384 114.463 28.457 114.463 28.3594C113.91 28.7174 113.364 29.1081 112.827 29.5312C112.42 29.8242 112.038 30.1009 111.68 30.3613C111.468 30.4915 111.232 30.5485 110.972 30.5322C110.728 30.4997 110.532 30.4102 110.386 30.2637C110.256 30.1009 110.239 29.8893 110.337 29.6289C110.581 29.0592 110.85 28.5059 111.143 27.9688C110.101 28.4733 109.092 29.0267 108.115 29.6289C107.66 29.9056 107.22 30.166 106.797 30.4102C106.585 30.5241 106.357 30.5729 106.113 30.5566C105.869 30.5404 105.674 30.459 105.527 30.3125C105.381 30.166 105.365 29.9544 105.479 29.6777C106.016 28.4082 106.618 27.1712 107.285 25.9668C107.448 25.6901 107.684 25.5436 107.993 25.5273C108.302 25.4948 108.563 25.5599 108.774 25.7227C108.986 25.8691 109.027 26.097 108.896 26.4062C108.604 26.9434 108.327 27.4886 108.066 28.042C109.596 27.0654 111.167 26.3818 112.778 25.9912C112.925 25.9749 113.096 25.9993 113.291 26.0645C113.486 26.1296 113.633 26.2354 113.73 26.3818C113.828 26.5283 113.812 26.6992 113.682 26.8945C113.617 27.0085 113.551 27.1143 113.486 27.2119C113.454 27.2607 113.421 27.3014 113.389 27.334C113.958 26.9759 114.528 26.6829 115.098 26.4551C115.277 26.39 115.464 26.3737 115.659 26.4062C115.854 26.4225 116.017 26.4958 116.147 26.626C116.278 26.7725 116.351 26.9027 116.367 27.0166C116.383 27.1143 116.375 27.2201 116.343 27.334C116.326 27.3991 116.318 27.4723 116.318 27.5537C116.318 27.6351 116.335 27.7246 116.367 27.8223C116.562 28.2292 117.01 28.4733 117.71 28.5547C118.41 28.6198 119.11 28.6279 119.81 28.5791C120.168 28.5791 120.469 28.5791 120.713 28.5791L130.723 28.4082ZM157.224 27.749C157.631 27.7979 157.899 27.9443 158.029 28.1885C158.16 28.4326 158.143 28.6768 157.98 28.9209C157.834 29.165 157.557 29.2871 157.15 29.2871C155.002 29.1895 152.854 29.0999 150.705 29.0186C148.54 28.9209 146.384 28.8314 144.235 28.75C143.584 28.7174 142.917 28.7093 142.233 28.7256C140.004 28.8721 137.904 28.5872 135.935 27.8711C134.795 29.0592 133.428 29.9382 131.833 30.5078C131.524 30.6217 131.215 30.6217 130.905 30.5078C130.596 30.3776 130.425 30.1335 130.393 29.7754C130.393 28.2129 130.84 26.7806 131.735 25.4785C131.931 25.2181 132.199 25.1042 132.541 25.1367C132.883 25.153 133.151 25.2751 133.347 25.5029C133.558 25.7308 133.575 26.0075 133.396 26.333C132.94 27.0166 132.639 27.7165 132.492 28.4326C133.355 27.9281 134.136 27.2445 134.836 26.3818C135.064 26.1702 135.316 26.0645 135.593 26.0645C135.869 26.0645 136.13 26.1458 136.374 26.3086C136.976 26.6992 137.709 26.9352 138.571 27.0166C139.45 27.098 140.313 27.1305 141.159 27.1143C141.599 27.1143 142.006 27.1224 142.38 27.1387L147.165 27.334C150.518 27.4805 153.871 27.6188 157.224 27.749Z" fill="#F3F3F3"/>
</svg>
